<svg width="10" height="5" viewBox="0 0 10 5" fill="none" xmlns="http://www.w3.org/2000/svg">
<path fill-rule="evenodd" clip-rule="evenodd" d="M8.91322 4.74586C8.75726 4.90177 8.54576 4.98936 8.32523 4.98936C8.10471 4.98936 7.89321 4.90177 7.73725 4.74586L4.9986 2.0072L2.25994 4.74586C2.18322 4.82529 2.09145 4.88865 1.98999 4.93224C1.88852 4.97582 1.77939 4.99876 1.66896 4.99972C1.55854 5.00068 1.44902 4.97964 1.34682 4.93782C1.24461 4.89601 1.15175 4.83425 1.07367 4.75617C0.995579 4.67808 0.933826 4.58523 0.89201 4.48302C0.850193 4.38081 0.82915 4.2713 0.83011 4.16087C0.831069 4.05044 0.854012 3.94131 0.897598 3.83985C0.941184 3.73838 1.00454 3.64661 1.08397 3.56989L4.41061 0.243255C4.56657 0.0873425 4.77807 -0.00024416 4.9986 -0.000244141C5.21912 -0.000244121 5.43062 0.0873426 5.58658 0.243255L8.91322 3.56989C9.06913 3.72585 9.15672 3.93735 9.15672 4.15788C9.15672 4.3784 9.06913 4.5899 8.91322 4.74586Z" fill="#9CA3AF"/>
</svg>
