<svg width="10" height="5" viewBox="0 0 10 5" fill="none" xmlns="http://www.w3.org/2000/svg">
<path fill-rule="evenodd" clip-rule="evenodd" d="M1.07358 0.253896C1.22954 0.0979839 1.44103 0.0103972 1.66156 0.0103972C1.88209 0.0103972 2.09358 0.0979839 2.24954 0.253896L4.9882 2.99255L7.72685 0.253896C7.80357 0.174464 7.89534 0.111106 7.99681 0.0675198C8.09827 0.0239334 8.2074 0.000990984 8.31783 3.1401e-05C8.42826 -0.000928182 8.53777 0.020114 8.63998 0.0619306C8.74219 0.103747 8.83504 0.165501 8.91313 0.243587C8.99122 0.321674 9.05297 0.414531 9.09479 0.516739C9.1366 0.618946 9.15765 0.728459 9.15669 0.838886C9.15573 0.949314 9.13278 1.05844 9.0892 1.15991C9.04561 1.26138 8.98225 1.35314 8.90282 1.42986L5.57618 4.7565C5.42022 4.91241 5.20872 5 4.9882 5C4.76767 5 4.55617 4.91241 4.40022 4.7565L1.07358 1.42986C0.917665 1.2739 0.830078 1.06241 0.830078 0.841879C0.830078 0.621353 0.917665 0.409855 1.07358 0.253896Z" fill="#9CA3AF"/>
</svg>
