<svg width="14" height="12" viewBox="0 0 14 12" fill="none" xmlns="http://www.w3.org/2000/svg">
<path d="M5.23077 8.66667V8H0.660385L0.653846 10.6667C0.653846 11.4067 1.23577 12 1.96154 12H11.1154C11.8412 12 12.4231 11.4067 12.4231 10.6667V8H7.84615V8.66667H5.23077ZM11.7692 2.66667H9.14731V1.33333L7.83962 0H5.22423L3.91654 1.33333V2.66667H1.30769C0.588462 2.66667 0 3.26667 0 4V6C0 6.74 0.581923 7.33333 1.30769 7.33333H5.23077V6H7.84615V7.33333H11.7692C12.4885 7.33333 13.0769 6.73333 13.0769 6V4C13.0769 3.26667 12.4885 2.66667 11.7692 2.66667ZM7.84615 2.66667H5.23077V1.33333H7.84615V2.66667Z" fill="#717171"/>
</svg>
