<svg width="16" height="12" viewBox="0 0 16 12" fill="none" xmlns="http://www.w3.org/2000/svg">
<path d="M12.9 4.69329C12.6761 3.55844 12.0651 2.53653 11.1714 1.80212C10.2777 1.06771 9.15674 0.666364 8 0.666626C6.07333 0.666626 4.4 1.75996 3.56667 3.35996C2.58682 3.46585 1.68067 3.9301 1.02233 4.66351C0.363981 5.39692 -0.000114468 6.34774 2.69952e-08 7.33329C2.69952e-08 9.53996 1.79333 11.3333 4 11.3333H12.6667C14.5067 11.3333 16 9.83996 16 7.99996C16 6.23996 14.6333 4.81329 12.9 4.69329ZM12.6667 9.99996H4C2.52667 9.99996 1.33333 8.80663 1.33333 7.33329C1.33333 5.96663 2.35333 4.82663 3.70667 4.68663L4.42 4.61329L4.75333 3.97996C5.05992 3.38314 5.52525 2.8825 6.09808 2.53316C6.67092 2.18381 7.32904 1.99931 8 1.99996C9.74667 1.99996 11.2533 3.23996 11.5933 4.95329L11.7933 5.95329L12.8133 6.02663C13.3145 6.06033 13.7843 6.28262 14.1281 6.64875C14.472 7.01488 14.6644 7.49767 14.6667 7.99996C14.6667 9.09996 13.7667 9.99996 12.6667 9.99996ZM8.96667 4.66663H7.03333V6.66663H5.33333L8 9.33329L10.6667 6.66663H8.96667V4.66663Z" fill="#717171"/>
</svg>
