<svg width="18" height="21" viewBox="0 0 18 21" fill="none" xmlns="http://www.w3.org/2000/svg">
<path fill-rule="evenodd" clip-rule="evenodd" d="M16 0H2C0.89 0 0 0.9 0 2V16C0 17.1 0.89 18 2 18H6L9 21L12 18H16C17.1 18 18 17.1 18 16V2C18 0.9 17.1 0 16 0ZM10 14V16H8V14H10ZM11.17 9.17L12.07 8.25C12.64 7.68 13 6.88 13 6C13 3.79 11.21 2 9 2C6.79 2 5 3.79 5 6H7C7 4.9 7.9 4 9 4C10.1 4 11 4.9 11 6C11 6.55 10.78 7.05 10.41 7.41L9.17 8.67C8.45 9.4 8 10.4 8 11.5V12H10C10 10.5 10.45 9.9 11.17 9.17Z" fill="#717171"/>
</svg>
