<svg width="132" height="24" viewBox="0 0 132 24" fill="none" xmlns="http://www.w3.org/2000/svg">
<path fill-rule="evenodd" clip-rule="evenodd" d="M0 0.774V24H16.7861V20.3175H3.91575V14.1127H15.1815V10.4288H3.91575V4.45725H16.6254V0.77475L0 0.774ZM43.8387 12.4545C43.8387 13.587 43.6485 14.6362 43.2687 15.6022C42.8889 16.5697 42.358 17.4023 41.6744 18.102C40.9908 18.8025 40.1612 19.3455 39.1848 19.7347C38.2085 20.1232 37.123 20.3167 35.9305 20.3167H31.4396V4.45725H35.9305C37.123 4.45725 38.2085 4.6575 39.1848 5.05725C40.1612 5.457 40.9915 6.00675 41.6744 6.70725C42.358 7.407 42.8889 8.24475 43.2687 9.222C43.6485 10.2 43.8387 11.2545 43.8387 12.387V12.4545ZM44.7015 4.092C43.6271 3.0525 42.3469 2.2395 40.861 1.65375C39.3743 1.068 37.7417 0.774 35.963 0.774H27.4678V24H35.963C37.7417 24 39.3743 23.7015 40.861 23.1045C42.3469 22.5068 43.6264 21.6885 44.7008 20.649C45.7733 19.6108 46.6212 18.3566 47.1904 16.9665C47.7766 15.5505 48.0694 14.025 48.0694 12.387V12.321C48.0694 10.6845 47.7766 9.1635 47.1904 7.75875C46.6183 6.37479 45.7707 5.12632 44.7008 4.092H44.7015ZM64.1535 0.774L54.1731 24H58.257L60.5895 18.432L62.0474 14.8417L65.9358 5.61675L69.8568 14.8417H63.6469L65.1048 18.432H71.3139L73.6147 24H77.8276L67.8465 0.774H64.1535ZM99.0686 19.4422C98.0826 19.9837 96.9035 20.2545 95.5333 20.2545C94.4611 20.2545 93.4707 20.0385 92.56 19.6073C91.6621 19.1862 90.8583 18.5829 90.198 17.8342C89.5343 17.0835 89.0189 16.2045 88.6553 15.1987C88.2878 14.174 88.103 13.0908 88.1096 12V11.934C88.1096 10.8067 88.291 9.74625 88.6553 8.75175C88.9993 7.79097 89.5232 6.90715 90.198 6.14925C90.862 5.40903 91.6651 4.81175 92.56 4.39275C93.4707 3.9615 94.4611 3.7455 95.5333 3.7455C96.8187 3.7455 97.9646 4.011 98.9712 4.54125C99.9786 5.0715 100.933 5.76825 101.832 6.63L104.371 3.6135C103.839 3.08586 103.27 2.59809 102.668 2.154C102.055 1.70519 101.398 1.32215 100.707 1.011C99.959 0.678041 99.1777 0.428097 98.3769 0.2655C97.5303 0.0885 96.593 0 95.565 0C93.8505 0 92.2872 0.315 90.8728 0.945C89.4591 1.575 88.2343 2.43675 87.1996 3.531C86.1609 4.63069 85.3422 5.92518 84.789 7.3425C84.2167 8.79 83.9306 10.3425 83.9306 12V12.066C83.9306 13.7235 84.2226 15.282 84.8052 16.74C85.3878 18.1987 86.1916 19.4648 87.2159 20.5365C88.2493 21.6148 89.4811 22.4762 90.8411 23.0715C92.2333 23.6895 93.7539 24 95.4043 24C96.4536 24 97.413 23.9055 98.2803 23.718C99.1095 23.5444 99.9141 23.266 100.675 22.8892C101.403 22.5247 102.084 22.0942 102.716 21.597C103.367 21.0809 103.975 20.5096 104.531 19.8892L101.992 17.238C101.029 18.1657 100.053 18.9008 99.0686 19.4422ZM127.412 0.774L120.969 11.0602L114.591 0.774H109.873L118.919 14.8425V24H122.955V14.7435L132 0.774H127.412Z" fill="#061020"/>
</svg>
