<svg width="48" height="48" viewBox="0 0 48 48" fill="none" xmlns="http://www.w3.org/2000/svg">
<path d="M0 4C0 1.79086 1.79086 0 4 0H44C46.2091 0 48 1.79086 48 4V44C48 46.2091 46.2091 48 44 48H4C1.79086 48 0 46.2091 0 44V4Z" fill="#FFCC00"/>
<path d="M17.8808 28.744C19.2008 30.232 21.2408 31.288 24.0247 31.288C28.3448 31.288 29.9288 28.912 29.9288 26.584C29.9288 23.224 26.9528 22.408 24.3368 21.712C22.2968 21.16 20.4488 20.68 20.4488 19.072C20.4488 17.56 21.8168 16.528 23.7368 16.528C25.4888 16.528 27.1688 17.128 28.3688 18.448L29.5688 16.984C28.2248 15.568 26.3288 14.752 23.8808 14.752C20.7368 14.752 18.3848 16.552 18.3848 19.192C18.3848 22.336 21.2408 23.056 23.8088 23.728C25.9208 24.304 27.8648 24.832 27.8648 26.752C27.8648 27.976 26.9528 29.512 24.0968 29.512C21.8408 29.512 20.1128 28.408 19.0568 27.232L17.8808 28.744Z" fill="#061020"/>
</svg>
