<svg width="88" height="24" viewBox="0 0 88 24" fill="none" xmlns="http://www.w3.org/2000/svg">
<rect width="88" height="24" fill="white"/>
<path d="M34.007 6.09033H29.8621C29.5785 6.09033 29.3373 6.29639 29.293 6.57639L27.6167 17.2049C27.5833 17.4146 27.7457 17.6037 27.9585 17.6037H29.9373C30.2209 17.6037 30.4621 17.3976 30.5064 17.117L30.9585 14.2503C31.0021 13.9697 31.2439 13.7637 31.527 13.7637H32.8391C35.5694 13.7637 37.1451 12.4425 37.5567 9.82427C37.7421 8.67882 37.5645 7.77882 37.0282 7.14851C36.4391 6.45639 35.3942 6.09033 34.007 6.09033ZM34.4851 9.97215C34.2585 11.4594 33.1221 11.4594 32.0233 11.4594H31.3979L31.8367 8.68185C31.8627 8.51397 32.0082 8.39033 32.1779 8.39033H32.4645C33.213 8.39033 33.9191 8.39033 34.2839 8.817C34.5015 9.07154 34.5682 9.44973 34.4851 9.97215Z" fill="#253B80"/>
<path d="M46.3967 9.92422H44.4118C44.2427 9.92422 44.0967 10.0479 44.0706 10.2157L43.9827 10.7709L43.8439 10.5697C43.4142 9.94603 42.456 9.73755 41.4997 9.73755C39.3063 9.73755 37.433 11.3988 37.0682 13.7291C36.8785 14.8915 37.1482 16.003 37.8076 16.7782C38.4124 17.4909 39.2779 17.7879 40.3076 17.7879C42.0748 17.7879 43.0548 16.6515 43.0548 16.6515L42.9663 17.203C42.933 17.4139 43.0954 17.603 43.307 17.603H45.0948C45.3791 17.603 45.6191 17.3969 45.6639 17.1163L46.7366 10.323C46.7706 10.1139 46.6088 9.92422 46.3967 9.92422ZM43.63 13.7872C43.4385 14.9212 42.5385 15.6824 41.3906 15.6824C40.8142 15.6824 40.3536 15.4975 40.0579 15.1472C39.7645 14.7994 39.653 14.3042 39.7463 13.7527C39.9251 12.6285 40.8403 11.8424 41.9706 11.8424C42.5342 11.8424 42.9924 12.0297 43.2942 12.383C43.5967 12.74 43.7167 13.2382 43.63 13.7872Z" fill="#253B80"/>
<path d="M56.9674 9.92426H54.9728C54.7825 9.92426 54.6037 10.0188 54.4959 10.177L51.745 14.2291L50.5789 10.3352C50.5056 10.0915 50.2807 9.92426 50.0262 9.92426H48.0662C47.828 9.92426 47.6625 10.157 47.7383 10.3812L49.9353 16.8285L47.8698 19.7443C47.7074 19.974 47.871 20.2897 48.1516 20.2897H50.1437C50.3328 20.2897 50.5098 20.1976 50.6171 20.0424L57.251 10.4667C57.4098 10.2376 57.2468 9.92426 56.9674 9.92426Z" fill="#253B80"/>
<path d="M63.5704 6.09033H59.425C59.142 6.09033 58.9007 6.29639 58.8565 6.57639L57.1801 17.2049C57.1468 17.4146 57.3092 17.6037 57.5207 17.6037H59.648C59.8456 17.6037 60.0147 17.4594 60.0456 17.2631L60.5213 14.2503C60.565 13.9697 60.8068 13.7637 61.0898 13.7637H62.4013C65.1323 13.7637 66.7074 12.4425 67.1195 9.82427C67.3056 8.67882 67.1268 7.77882 66.5904 7.14851C66.002 6.45639 64.9577 6.09033 63.5704 6.09033ZM64.0486 9.97215C63.8226 11.4594 62.6862 11.4594 61.5868 11.4594H60.962L61.4013 8.68185C61.4274 8.51397 61.5716 8.39033 61.742 8.39033H62.0286C62.7765 8.39033 63.4832 8.39033 63.848 8.817C64.0656 9.07154 64.1316 9.44973 64.0486 9.97215Z" fill="#179BD7"/>
<path d="M75.9605 9.92422H73.9768C73.8065 9.92422 73.6617 10.0479 73.6362 10.2157L73.5483 10.7709L73.4089 10.5697C72.9793 9.94603 72.0217 9.73755 71.0653 9.73755C68.872 9.73755 66.9993 11.3988 66.6344 13.7291C66.4453 14.8915 66.7138 16.003 67.3732 16.7782C67.9793 17.4909 68.8435 17.7879 69.8732 17.7879C71.6405 17.7879 72.6205 16.6515 72.6205 16.6515L72.532 17.203C72.4986 17.4139 72.6611 17.603 72.8738 17.603H74.6611C74.9441 17.603 75.1853 17.3969 75.2296 17.1163L76.3029 10.323C76.3356 10.1139 76.1732 9.92422 75.9605 9.92422ZM73.1938 13.7872C73.0035 14.9212 72.1023 15.6824 70.9544 15.6824C70.3793 15.6824 69.9174 15.4975 69.6217 15.1472C69.3283 14.7994 69.218 14.3042 69.3102 13.7527C69.4902 12.6285 70.4041 11.8424 71.5344 11.8424C72.098 11.8424 72.5562 12.0297 72.858 12.383C73.1617 12.74 73.2817 13.2382 73.1938 13.7872Z" fill="#179BD7"/>
<path d="M78.3003 6.38184L76.5991 17.2049C76.5657 17.4146 76.7282 17.6037 76.9397 17.6037H78.65C78.9342 17.6037 79.1754 17.3976 79.2191 17.117L80.8967 6.48912C80.93 6.27942 80.7676 6.08972 80.556 6.08972H78.6409C78.4718 6.09033 78.3264 6.21396 78.3003 6.38184Z" fill="#179BD7"/>
<path d="M10.4032 19.6691L10.7202 17.6558L10.0141 17.6394H6.64258L8.98561 2.78303C8.99288 2.73818 9.01652 2.69636 9.05106 2.66667C9.08561 2.63697 9.12985 2.62061 9.17591 2.62061H14.8608C16.748 2.62061 18.0505 3.01333 18.7305 3.78848C19.0492 4.15212 19.2523 4.53212 19.3505 4.9503C19.4535 5.38909 19.4553 5.91333 19.3547 6.55273L19.3474 6.59939V7.00909L19.6662 7.1897C19.9347 7.33212 20.148 7.49515 20.3117 7.68182C20.5844 7.99273 20.7608 8.38788 20.8353 8.85636C20.9123 9.33818 20.8868 9.91151 20.7608 10.5606C20.6153 11.3073 20.3802 11.9576 20.0626 12.4897C19.7705 12.98 19.3983 13.3867 18.9565 13.7018C18.5347 14.0012 18.0335 14.2285 17.4668 14.3739C16.9177 14.517 16.2917 14.5891 15.605 14.5891H15.1626C14.8462 14.5891 14.5389 14.703 14.2977 14.9073C14.0559 15.1158 13.8959 15.4006 13.8468 15.7121L13.8135 15.8933L13.2535 19.4418L13.228 19.5721C13.2214 19.6133 13.2099 19.6339 13.1929 19.6479C13.1777 19.6606 13.1559 19.6691 13.1347 19.6691H10.4032Z" fill="#253B80"/>
<path d="M19.969 6.64667C19.952 6.75515 19.9326 6.86606 19.9108 6.98C19.1611 10.8291 16.5962 12.1588 13.3205 12.1588H11.6526C11.252 12.1588 10.9144 12.4497 10.852 12.8448L9.99805 18.2606L9.75623 19.7958C9.71562 20.0552 9.91562 20.2891 10.1774 20.2891H13.1356C13.4859 20.2891 13.7835 20.0345 13.8387 19.6891L13.8677 19.5388L14.4247 16.0042L14.4605 15.8103C14.515 15.4636 14.8132 15.2091 15.1635 15.2091H15.6059C18.472 15.2091 20.7156 14.0455 21.3714 10.6782C21.6453 9.27152 21.5035 8.09697 20.7787 7.27091C20.5593 7.02182 20.2871 6.81515 19.969 6.64667Z" fill="#179BD7"/>
<path d="M19.1843 6.33391C19.0697 6.30058 18.9516 6.27027 18.8304 6.243C18.7085 6.21633 18.5837 6.1927 18.4552 6.17209C18.0055 6.09936 17.5128 6.06482 16.9849 6.06482H12.5291C12.4194 6.06482 12.3152 6.08967 12.2219 6.13452C12.0164 6.2333 11.8637 6.42785 11.8267 6.66603L10.8788 12.6697L10.8516 12.8448C10.914 12.4497 11.2516 12.1588 11.6522 12.1588H13.32C16.5958 12.1588 19.1607 10.8285 19.9104 6.97997C19.9328 6.86603 19.9516 6.75512 19.9685 6.64664C19.7788 6.54603 19.5734 6.45997 19.3522 6.38664C19.2976 6.36846 19.2413 6.35088 19.1843 6.33391Z" fill="#222D65"/>
<path d="M11.8267 6.66606C11.8636 6.42788 12.0164 6.23333 12.2218 6.13515C12.3158 6.0903 12.4194 6.06545 12.5291 6.06545H16.9848C17.5127 6.06545 18.0054 6.1 18.4551 6.17273C18.5836 6.19333 18.7085 6.21697 18.8303 6.24364C18.9515 6.27091 19.0697 6.30121 19.1842 6.33455C19.2412 6.35152 19.2976 6.36909 19.3527 6.38667C19.5739 6.46 19.7794 6.54667 19.9691 6.64667C20.1921 5.22424 19.9673 4.25576 19.1982 3.37879C18.3503 2.41333 16.82 2 14.8618 2H9.17696C8.77696 2 8.43575 2.29091 8.37393 2.68667L6.00605 17.6958C5.95939 17.9927 6.18848 18.2606 6.48787 18.2606H9.99757L10.8788 12.6697L11.8267 6.66606Z" fill="#253B80"/>
</svg>
