<svg width="13" height="14" viewBox="0 0 13 14" fill="none" xmlns="http://www.w3.org/2000/svg">
<path d="M11.2069 7.62677C11.2331 7.42677 11.2461 7.2201 11.2461 7.0001C11.2461 6.78677 11.2331 6.57343 11.2004 6.37343L12.5277 5.3201C12.5849 5.27203 12.624 5.20523 12.6383 5.13108C12.6526 5.05693 12.6412 4.98001 12.6061 4.91343L11.3508 2.7001C11.3138 2.63314 11.2548 2.58168 11.1842 2.55484C11.1136 2.52799 11.0359 2.5275 10.965 2.55343L9.4023 3.19343C9.07538 2.9401 8.72884 2.72677 8.34307 2.56677L8.10769 0.873433C8.09611 0.79712 8.05807 0.727571 8.00048 0.677417C7.9429 0.627263 7.86958 0.59983 7.79384 0.6001H5.28307C5.12615 0.6001 5.00192 0.713433 4.97576 0.873433L4.74038 2.56677C4.35461 2.72677 4.00153 2.94677 3.68115 3.19343L2.11846 2.55343C1.97461 2.5001 1.81115 2.55343 1.73269 2.7001L0.483841 4.91343C0.40538 5.05343 0.431534 5.22677 0.562303 5.3201L1.88961 6.37343C1.85692 6.57343 1.83076 6.79343 1.83076 7.0001C1.83076 7.20677 1.84384 7.42677 1.87653 7.62677L0.549226 8.6801C0.49203 8.72817 0.45295 8.79497 0.438643 8.86912C0.424336 8.94327 0.435688 9.02019 0.470765 9.08677L1.72615 11.3001C1.80461 11.4468 1.96807 11.4934 2.11192 11.4468L3.67461 10.8068C4.00153 11.0601 4.34807 11.2734 4.73384 11.4334L4.96923 13.1268C5.00192 13.2868 5.12615 13.4001 5.28307 13.4001H7.79384C7.95076 13.4001 8.08153 13.2868 8.10115 13.1268L8.33653 11.4334C8.7223 11.2734 9.07538 11.0601 9.39576 10.8068L10.9585 11.4468C11.1023 11.5001 11.2658 11.4468 11.3442 11.3001L12.5996 9.08677C12.6781 8.9401 12.6454 8.77343 12.5211 8.6801L11.2069 7.62677ZM6.53846 9.4001C5.91471 9.39834 5.317 9.14492 4.87594 8.69521C4.43488 8.24551 4.18634 7.63608 4.18461 7.0001C4.18461 5.6801 5.24384 4.6001 6.53846 4.6001C7.83307 4.6001 8.8923 5.6801 8.8923 7.0001C8.8923 8.3201 7.83307 9.4001 6.53846 9.4001Z" fill="#717171"/>
</svg>
